<svg width="800" height="800" viewBox="0 0 800 800" fill="none" xmlns="http://www.w3.org/2000/svg">
<g clip-path="url(#clip0_257_508)">
<path d="M468.367 91.7L632.867 186.7C660.067 158.067 705.3 156.933 733.933 184.133C738.867 188.8 743.067 194.167 746.5 200.033C766.133 234.3 754.233 278 719.967 297.633C714.167 300.967 707.933 303.467 701.367 305.067V495.033C739.567 504.133 763.167 542.467 754.033 580.667C752.433 587.467 749.8 594 746.3 600.033C726.567 634.133 682.933 645.833 648.733 626.1C642.2 622.333 636.233 617.467 631.2 611.8L467.7 706.2C480.1 743.667 459.767 784.033 422.333 796.4C415.1 798.767 407.6 800 400 800C360.633 800.033 328.7 768.167 328.667 728.8C328.667 721.967 329.633 715.133 331.6 708.5L167.067 613.6C139.867 642.067 94.7 643.167 66.2 615.933C37.7333 588.733 36.6666 543.567 63.8666 515.067C73.3 505.167 85.4 498.2 98.6666 494.967L98.6999 305C60.3666 295.8 36.7666 257.233 46 218.867C47.5666 212.267 50.1 205.9 53.4666 200C73.2 165.867 116.867 154.2 151.033 173.933C156.933 177.3 162.333 181.533 167.033 186.5L331.633 91.5C320.433 53.7334 342 14.1 379.667 2.93336C386.233 0.966693 393.133 2.61541e-05 400 2.61541e-05C439.367 -0.0333072 471.3 31.8 471.333 71.1334C471.367 78.1 470.333 85.0667 468.367 91.7ZM451.2 120.933C450.567 121.633 449.967 122.233 449.267 122.867L664.633 495.867C665.5 495.567 666.5 495.333 667.367 495.1V304.867C629.2 295.433 605.967 256.8 615.433 218.6C615.633 217.8 615.833 216.967 616.067 216.2L451.2 120.933ZM350.7 122.9L348.7 120.9L183.833 215.967C194.733 253.8 172.933 293.233 135.133 304.133C134.267 304.4 133.433 304.6 132.6 304.833V495.1L135.4 495.867L350.767 122.867L350.7 122.9ZM419.9 139.8C406.9 143.533 393.133 143.533 380.167 139.8L164.833 512.767C174.633 522.2 181.567 534.267 184.833 547.467H615.2C618.433 534.2 625.433 522.1 635.3 512.667L419.9 139.8ZM452.767 680.7L616.533 586.1C616.033 584.533 615.633 582.967 615.267 581.367H184.733L184.033 584.133L348.667 679.2C361.6 665.733 379.8 657.433 400 657.433C420.9 657.433 439.667 666.4 452.767 680.7Z" fill="#E535AB"/>
</g>
<defs>
<clipPath id="clip0_257_508">
<rect width="800" height="800" fill="white"/>
</clipPath>
</defs>
</svg>
