<svg width="80" height="80" viewBox="0 0 80 80" fill="none" xmlns="http://www.w3.org/2000/svg">
<mask id="mask0_257_493" style="mask-type:luminance" maskUnits="userSpaceOnUse" x="2" y="2" width="76" height="76">
<path d="M62.4659 2.19189H17.5344C9.06095 2.19189 2.19189 9.06095 2.19189 17.5344V62.4659C2.19189 70.9393 9.06095 77.8083 17.5344 77.8083H62.4659C70.9393 77.8083 77.8083 70.9393 77.8083 62.4659V17.5344C77.8083 9.06095 70.9393 2.19189 62.4659 2.19189Z" fill="white"/>
</mask>
<g mask="url(#mask0_257_493)">
<path d="M-2.19189 37.8081L-2.19189 77.8081H37.8081L77.8081 77.8081V37.8081L77.8081 -2.19189L37.8081 -2.19189H-2.19189L-2.19189 37.8081ZM62.2779 34.6208C64.3097 35.1287 65.8589 36.0303 67.2811 37.5033C68.0176 38.2906 69.1097 39.7256 69.1986 40.0684C69.224 40.17 65.7446 42.5065 63.6367 43.8145C63.5605 43.8652 63.2557 43.5351 62.9129 43.0272C61.8843 41.5287 60.8049 40.8811 59.1541 40.7668C56.7287 40.6018 55.1668 41.8716 55.1795 43.9922C55.1795 44.6145 55.2684 44.9827 55.5224 45.4906C56.0557 46.5954 57.0462 47.2557 60.1573 48.6018C65.8843 51.0652 68.3351 52.6906 69.8589 55.0018C71.5605 57.5795 71.9414 61.6938 70.7859 64.7541C69.516 68.0811 66.3668 70.3414 61.9351 71.0906C60.5637 71.3319 57.3129 71.2938 55.8399 71.0272C52.6272 70.4557 49.5795 68.8684 47.7002 66.7859C46.9637 65.9732 45.5287 63.8525 45.6176 63.7002C45.6557 63.6494 45.9859 63.4462 46.3541 63.2303C46.7097 63.0272 48.0557 62.2526 49.3256 61.516L51.624 60.1827L52.1065 60.8938C52.7795 61.9224 54.2525 63.3319 55.1414 63.8018C57.6938 65.1478 61.1986 64.9573 62.9256 63.4081C63.6621 62.7351 63.9668 62.0367 63.9668 61.0081C63.9668 60.0811 63.8525 59.6748 63.37 58.9764C62.7478 58.0875 61.4779 57.3383 57.8716 55.7764C53.7446 53.9986 51.9668 52.8938 50.3414 51.1414C49.4018 50.1256 48.5129 48.5002 48.1446 47.1414C47.8399 46.0113 47.7637 43.1795 48.0049 42.0367C48.8557 38.0494 51.8652 35.2684 56.2081 34.443C57.6176 34.1764 60.8938 34.2779 62.2779 34.6208ZM43.497 37.9605L43.5224 41.2367H38.316H33.1097L33.1097 56.0303V70.824H29.4272H25.7446L25.7446 56.0303V41.2367H20.5383H15.3319V38.024C15.3319 36.2462 15.37 34.7605 15.4208 34.7224C15.4589 34.6716 21.7954 34.6462 29.4779 34.6589L43.4589 34.697L43.497 37.9605Z" fill="#007ACC"/>
</g>
</svg>
