<svg width="24" height="24" viewBox="0 0 24 24" fill="none" xmlns="http://www.w3.org/2000/svg">
<g clip-path="url(#clip0_18_2)">
<rect width="24" height="24" rx="12" fill="black"/>
<path d="M5.01137 5.60039V11.0562H4.04858V4.66052H10.2609V5.60039H5.01137Z" fill="white"/>
<path d="M7.30361 7.89275V11.0791H6.34082V6.90704H10.2837V7.89275H7.30361Z" fill="white"/>
<path d="M10.6736 10.9874V4.68347C11.2421 4.68347 11.56 4.77517 11.6364 4.82101V10.1622C11.4346 10.6757 10.9028 10.9263 10.6736 10.9874Z" fill="white"/>
<path d="M12.0489 13.3715C16.0375 11.2625 14.4787 6.47148 11.6362 5.8067V4.82098C13.1721 5.23361 15.4853 6.90651 15.4186 9.77246C15.352 12.6384 13.0957 14.0515 12.0489 14.403V13.3715Z" fill="white"/>
<path d="M12.0489 9.08479V7.59476C12.6678 7.89276 13.4243 9.35987 12.8283 10.8041C12.3772 11.897 11.1778 12.3246 10.6506 12.4087H4.04858V11.423H10.6506C12.2827 10.9095 12.2628 9.65023 12.0489 9.08479Z" fill="white"/>
<path d="M4.02563 16.5578L4.07148 11.4459H4.98842V16.1223L7.28078 17.9791V19.217L4.02563 16.5578Z" fill="white"/>
<path d="M6.38672 13.7841V17.2685V18.4834L7.30366 19.2399V14.724H10.2379V13.7841H6.38672Z" fill="white"/>
<path d="M10.6736 12.8442C11.1687 12.7342 11.5065 12.5997 11.6134 12.5462V17.6123H19.4304L19.9347 18.5522H11.6134H10.6736V12.8442Z" fill="white"/>
<path d="M17.7339 16.2598L18.4216 17.6123H19.4302L18.7884 16.2598H17.7339Z" fill="white"/>
<path d="M12.9888 16.2598H18.7884L18.307 15.297H13.9057V13.807L12.9888 14.4259V16.2598Z" fill="white"/>
</g>
<defs>
<clipPath id="clip0_18_2">
<rect width="24" height="24" fill="white"/>
</clipPath>
</defs>
</svg>
