<svg width="64" height="64" viewBox="0 0 1000 1000" fill="none" xmlns="http://www.w3.org/2000/svg">
<path d="M130.996 161.173V449.242H80.1602V111.547H408.172V161.173H130.996Z" fill="black"/>
<path d="M252.034 282.21V450.452H201.198V230.164H409.382V282.21H252.034Z" fill="black"/>
<path d="M429.959 445.611V112.758C459.976 112.758 476.76 117.599 480.794 120.02V402.037C470.143 429.149 442.062 442.383 429.959 445.611Z" fill="black"/>
<path d="M502.581 571.49C713.186 460.135 630.881 207.167 480.794 172.066V120.02C561.889 141.807 684.025 230.137 680.506 381.461C676.987 532.785 557.855 607.397 502.581 625.956V571.49Z" fill="black"/>
<path d="M502.581 345.15V266.475C535.261 282.21 575.203 359.674 543.734 435.928C519.917 493.637 456.587 516.216 428.748 520.654H80.1602V468.608H428.748C514.927 441.495 513.878 375.005 502.581 345.15Z" fill="black"/>
<path d="M78.95 739.732L81.3707 469.818H129.786V716.735L250.823 814.775V880.135L78.95 739.732Z" fill="black"/>
<path d="M203.618 593.276V777.253V841.403L252.033 881.345V642.902H406.961V593.276H203.618Z" fill="black"/>
<path d="M429.959 543.651C456.103 537.841 473.936 530.74 479.584 527.916V795.409H892.322L918.95 845.034H479.584H429.959V543.651Z" fill="black"/>
<path d="M802.754 723.997L839.065 795.409H892.322L858.431 723.997H802.754Z" fill="black"/>
<path d="M552.206 723.997H858.431L833.013 673.161H600.621V594.487L552.206 627.167V723.997Z" fill="black"/>
</svg>
